<svg width="24" height="24" viewBox="0 0 24 24" fill="none" xmlns="http://www.w3.org/2000/svg">
<path fill-rule="evenodd" clip-rule="evenodd" d="M2 10.5C2 6.35786 5.35786 3 9.5 3C13.6421 3 17 6.35786 17 10.5C17 14.6421 13.6421 18 9.5 18C8.40027 18 7.35412 17.7628 6.41143 17.3363C5.15315 17.6267 3.79825 17.8765 3.17494 17.9875C2.48734 18.1099 1.88844 17.5063 2.02174 16.8173C2.13954 16.2085 2.40124 14.9 2.70336 13.6749C2.25193 12.71 2 11.6335 2 10.5ZM14.5616 21.0002C12.5922 21.0002 10.8001 20.2411 9.46191 18.9996C9.49511 19 9.52835 19.0002 9.56163 19.0002C10.2796 19.0002 10.9768 18.9112 11.6427 18.7436C12.5067 19.2255 13.5021 19.5002 14.5616 19.5002C15.5223 19.5002 16.4283 19.2749 17.2316 18.875L17.475 18.7539L17.7395 18.8168C18.6611 19.0362 19.7046 19.2627 20.4787 19.4264C20.3037 18.6758 20.065 17.6713 19.8372 16.7758L19.767 16.5L19.8975 16.247C20.3217 15.4248 20.5616 14.4916 20.5616 13.5002C20.5616 11.3855 19.4676 9.52629 17.8146 8.45773C17.6363 7.73448 17.3653 7.04768 17.015 6.41064C19.9523 7.42696 22.0616 10.2172 22.0616 13.5002C22.0616 14.6333 21.8098 15.7095 21.3586 16.6742C21.6117 17.6822 21.8679 18.7741 22.0304 19.4775C22.2348 20.3624 21.4554 21.1634 20.563 20.9769C19.8358 20.8249 18.6933 20.5811 17.6495 20.3368C16.707 20.7631 15.6611 21.0002 14.5616 21.0002ZM9.5 17C12.5376 17 15 14.0899 15 10.5C15 6.91015 12.5376 4 9.5 4C6.46243 4 4 6.91015 4 10.5C4 14.0899 6.46243 17 9.5 17Z" fill="#5EBA7D"/>
<path d="M17 10.4988C17 6.35736 13.6421 3 9.5 3C5.35786 3 2 6.35736 2 10.4988C2 11.7308 2.2979 12.9205 2.85868 13.986L2.02141 17.2019C1.99398 17.3071 1.99399 17.4178 2.02143 17.5231C2.11017 17.8638 2.45833 18.068 2.79904 17.9793L6.01684 17.1416C7.08137 17.7008 8.2697 17.9977 9.5 17.9977C13.6421 17.9977 17 14.6404 17 10.4988ZM9.5 6.37559C9.81065 6.37559 10.0625 6.62739 10.0625 6.93801V11.6248C10.0625 11.9354 9.81065 12.1872 9.5 12.1872C9.18935 12.1872 8.9375 11.9354 8.9375 11.6248V6.93801C8.9375 6.62739 9.18935 6.37559 9.5 6.37559ZM10.25 13.8729C10.25 14.287 9.91422 14.6228 9.5 14.6228C9.08578 14.6228 8.75 14.287 8.75 13.8729C8.75 13.4587 9.08578 13.123 9.5 13.123C9.91422 13.123 10.25 13.4587 10.25 13.8729Z" fill="#5EBA7D"/>
</svg>
