<svg width="14" height="14" viewBox="0 0 14 14" fill="none" xmlns="http://www.w3.org/2000/svg">
<path d="M5.83366 2.91667H8.16699C8.16699 2.27233 7.64468 1.75 7.00033 1.75C6.35598 1.75 5.83366 2.27233 5.83366 2.91667ZM4.95866 2.91667C4.95866 1.78908 5.87274 0.875 7.00033 0.875C8.12791 0.875 9.04199 1.78908 9.04199 2.91667H12.3962C12.6378 2.91667 12.8337 3.11254 12.8337 3.35417C12.8337 3.59579 12.6378 3.79167 12.3962 3.79167H11.6267L10.943 10.8565C10.8345 11.9778 9.8922 12.8333 8.76567 12.8333H5.23498C4.10847 12.8333 3.16616 11.9778 3.05765 10.8565L2.37396 3.79167H1.60449C1.36287 3.79167 1.16699 3.59579 1.16699 3.35417C1.16699 3.11254 1.36287 2.91667 1.60449 2.91667H4.95866ZM6.12533 5.6875C6.12533 5.44588 5.92944 5.25 5.68783 5.25C5.4462 5.25 5.25033 5.44588 5.25033 5.6875V10.0625C5.25033 10.3041 5.4462 10.5 5.68783 10.5C5.92944 10.5 6.12533 10.3041 6.12533 10.0625V5.6875ZM8.31283 5.25C8.07121 5.25 7.87533 5.44588 7.87533 5.6875V10.0625C7.87533 10.3041 8.07121 10.5 8.31283 10.5C8.55444 10.5 8.75033 10.3041 8.75033 10.0625V5.6875C8.75033 5.44588 8.55444 5.25 8.31283 5.25Z" fill="url(#paint0_linear_39_16)"/>
<defs>
<linearGradient id="paint0_linear_39_16" x1="7.00033" y1="0.875" x2="7.00033" y2="12.8333" gradientUnits="userSpaceOnUse">
<stop stop-color="#FFC9CE"/>
<stop offset="0.614583" stop-color="#FF6969"/>
<stop offset="1" stop-color="#E2647B"/>
</linearGradient>
</defs>
</svg>
