<svg width="14" height="14" viewBox="0 0 14 14" fill="none" xmlns="http://www.w3.org/2000/svg">
<path d="M7 14C8.85652 14 10.637 13.2625 11.9497 11.9497C13.2625 10.637 14 8.85652 14 7C14 5.14348 13.2625 3.36302 11.9497 2.05026C10.637 0.737508 8.85652 0 7 0C5.14348 0 3.36301 0.737508 2.05025 2.05026C0.737496 3.36302 0 5.14348 0 7C0 8.85652 0.737496 10.637 2.05025 11.9497C3.36301 13.2625 5.14348 14 7 14Z" fill="#6C737A"/>
<path d="M10.2 8.70001L8.3 6.79999L10.2 4.89999V4.60001L9.3 3.79999H9L7 5.79999L5.2 3.79999H4.9L4 4.60001V4.89999L5.9 6.79999L4 8.70001V9L4.9 9.89999H5.2L7.1 8L9 9.89999H9.3L10.2 9" fill="white"/>
</svg>
