<svg width="14" height="14" viewBox="0 0 14 14" fill="none" xmlns="http://www.w3.org/2000/svg">
<path d="M9.27013 1.77798C10.0853 0.96271 11.407 0.962675 12.2223 1.77789C13.0374 2.59304 13.0374 3.91466 12.2223 4.72986L11.7021 5.25017L8.75003 2.29812L9.27013 1.77798ZM8.13135 2.91688L2.29926 8.74966C2.06223 8.98673 1.89563 9.28487 1.81799 9.61095L1.1789 12.2952C1.14371 12.443 1.18771 12.5984 1.29514 12.7058C1.40257 12.8133 1.55804 12.8573 1.70583 12.8221L4.3899 12.183C4.7161 12.1053 5.01434 11.9387 5.25144 11.7016L11.0834 5.86893L8.13135 2.91688Z" fill="url(#paint0_linear_39_8)"/>
<defs>
<linearGradient id="paint0_linear_39_8" x1="7.00031" y1="1.1665" x2="7.00031" y2="12.834" gradientUnits="userSpaceOnUse">
<stop stop-color="#A7D9FF"/>
<stop offset="0.598958" stop-color="#7896FF"/>
<stop offset="1" stop-color="#616DD9"/>
</linearGradient>
</defs>
</svg>
