<svg width="22" height="22" viewBox="0 0 22 22" fill="none" xmlns="http://www.w3.org/2000/svg">
<path d="M15.5375 1.92734C15.5088 1.91289 15.4769 1.90604 15.4448 1.90747C15.4127 1.90889 15.3816 1.91854 15.3543 1.93548C15.327 1.95242 15.3045 1.97608 15.289 2.00421C15.2735 2.03233 15.2654 2.06397 15.2656 2.09609V3.60078C15.2656 3.72969 15.3336 3.84922 15.4414 3.91953C15.97 4.2522 16.459 4.64376 16.8992 5.08672C17.6657 5.85547 18.268 6.74844 18.6875 7.74219C19.1214 8.77093 19.3438 9.87648 19.3414 10.993C19.3414 12.1203 19.1211 13.2148 18.6875 14.2438C18.2685 15.2361 17.6612 16.1378 16.8992 16.8992C16.1398 17.6631 15.2386 18.2713 14.2461 18.6898C13.2196 19.1258 12.125 19.3461 11 19.3461C9.87502 19.3461 8.78049 19.1258 7.75393 18.6898C6.76144 18.2713 5.86021 17.6631 5.10081 16.8992C4.33886 16.1378 3.73158 15.2361 3.31253 14.2438C2.87866 13.215 2.65627 12.1095 2.65862 10.993C2.65862 9.86563 2.87893 8.77109 3.31253 7.74219C3.73206 6.74844 4.3344 5.85547 5.10081 5.08672C5.54612 4.64141 6.03362 4.25234 6.55862 3.91953C6.66878 3.85156 6.7344 3.72969 6.7344 3.60078V2.09375C6.7344 1.95312 6.58674 1.86406 6.46253 1.925C3.18362 3.575 0.921901 6.95234 0.875026 10.8664C0.809401 16.4633 5.38674 21.1133 10.9813 21.125C16.5828 21.1367 21.125 16.5945 21.125 10.9906C21.125 7.025 18.8516 3.59141 15.5375 1.92734ZM10.25 12.125H11.75C11.8532 12.125 11.9375 12.0406 11.9375 11.9375V1.0625C11.9375 0.959375 11.8532 0.875 11.75 0.875H10.25C10.1469 0.875 10.0625 0.959375 10.0625 1.0625V11.9375C10.0625 12.0406 10.1469 12.125 10.25 12.125Z" fill="black"/>
</svg>
