<?xml version="1.0" standalone="no"?>
<!DOCTYPE svg PUBLIC "-//W3C//DTD SVG 20010904//EN"
 "http://www.w3.org/TR/2001/REC-SVG-20010904/DTD/svg10.dtd">
<svg version="1.0" xmlns="http://www.w3.org/2000/svg"
 width="13.000000pt" height="17.000000pt" viewBox="0 0 13.000000 17.000000"
 preserveAspectRatio="xMidYMid meet">

<g transform="translate(0.000000,17.000000) scale(0.100000,-0.100000)"
fill="#000000" stroke="none">
<path d="M0 75 l0 -75 65 0 66 0 -3 73 -3 72 -62 3 -63 3 0 -76z m80 15 c0 -5
-8 -11 -17 -11 -15 -1 -14 -2 2 -7 l20 -5 -20 -8 c-17 -6 -17 -8 -2 -8 24 -1
22 -21 -3 -21 -16 0 -20 7 -20 35 0 28 4 35 20 35 11 0 20 -4 20 -10z"/>
</g>
</svg>
